<?xml version="1.0" standalone="no"?><!DOCTYPE svg PUBLIC "-//W3C//DTD SVG 1.1//EN" "http://www.w3.org/Graphics/SVG/1.1/DTD/svg11.dtd"><svg t="1709728579927" class="icon" viewBox="0 0 1365 1024" version="1.1" xmlns="http://www.w3.org/2000/svg" p-id="15422" xmlns:xlink="http://www.w3.org/1999/xlink" width="26.66015625" height="20"><path d="M48.761905 24.380952a24.380952 24.380952 0 0 0-24.380953 24.380953v926.47619a24.380952 24.380952 0 0 0 24.380953 24.380953h1267.809524a24.380952 24.380952 0 0 0 24.380952-24.380953V48.761905a24.380952 24.380952 0 0 0-24.380952-24.380953z" fill="#CCF4FD" p-id="15423"></path><path d="M1316.571429 1024H48.761905a48.761905 48.761905 0 0 1-48.761905-48.761905V48.761905a48.761905 48.761905 0 0 1 48.761905-48.761905h1267.809524a48.761905 48.761905 0 0 1 48.761904 48.761905v926.47619a48.761905 48.761905 0 0 1-48.761904 48.761905zM48.761905 48.761905v926.47619h1267.809524V48.761905z" fill="#2C2C5F" p-id="15424"></path><path d="M498.346667 316.952381H164.815238a24.380952 24.380952 0 1 1 0-48.761905h333.531429a24.380952 24.380952 0 0 1 0 48.761905zM498.346667 536.380952H164.815238a24.380952 24.380952 0 1 1 0-48.761904h333.531429a24.380952 24.380952 0 0 1 0 48.761904zM498.346667 755.809524H164.815238a24.380952 24.380952 0 1 1 0-48.761905h333.531429a24.380952 24.380952 0 0 1 0 48.761905z" fill="#2C2C5F" p-id="15425"></path><path d="M950.369524 405.455238m-165.790476 0a165.790476 165.790476 0 1 0 331.580952 0 165.790476 165.790476 0 1 0-331.580952 0Z" fill="#6ABDF2" p-id="15426"></path><path d="M950.857143 595.870476a190.415238 190.415238 0 1 1 190.171428-190.415238 190.415238 190.415238 0 0 1-190.171428 190.415238z m0-331.824762a141.653333 141.653333 0 1 0 141.409524 141.409524 141.653333 141.653333 0 0 0-141.409524-141.409524z" fill="#2C2C5F" p-id="15427"></path><path d="M1258.057143 999.619048c-10.727619-186.026667-146.285714-331.824762-307.687619-331.824762S653.165714 813.592381 642.438095 999.619048z" fill="#6ABDF2" p-id="15428"></path><path d="M1284.144762 1024H616.594286l1.462857-25.84381c11.702857-198.948571 157.500952-354.742857 332.312381-354.742857s320.365714 155.794286 332.068571 354.742857z m-615.131429-48.761905h562.468572c-20.48-160.670476-139.946667-283.062857-280.624762-283.062857S689.493333 814.567619 669.013333 975.238095z" fill="#2C2C5F" p-id="15429"></path></svg>