<?xml version="1.0" standalone="no"?><!DOCTYPE svg PUBLIC "-//W3C//DTD SVG 1.1//EN" "http://www.w3.org/Graphics/SVG/1.1/DTD/svg11.dtd"><svg t="1709727395760" class="icon" viewBox="0 0 1024 1024" version="1.1" xmlns="http://www.w3.org/2000/svg" p-id="5308" xmlns:xlink="http://www.w3.org/1999/xlink" width="20" height="20"><path d="M841.49008 304.094038c-131.182864-15.357994-149.74044 0-175.977013-25.596657a101.106793 101.106793 0 0 1-18.557576-106.226124 117.74462 117.74462 0 0 0 5.119332-44.794149A134.382446 134.382446 0 0 0 511.933129 0.133743a511.933129 511.933129 0 1 0 511.933128 511.933128 205.413168 205.413168 0 0 0-182.376177-207.972833zM511.933129 947.210031A435.143159 435.143159 0 0 1 511.933129 76.923712a72.950471 72.950471 0 0 1 51.193313 21.117241 74.230304 74.230304 0 0 1 12.798328 55.672728 175.337097 175.337097 0 0 0 38.394984 180.456428 151.660189 151.660189 0 0 0 115.824871 39.674818A952.835536 952.835536 0 0 1 831.891334 384.083589a127.983282 127.983282 0 0 1 115.184954 127.983282A435.783076 435.783076 0 0 1 511.933129 947.210031z" fill="#2B85FB" p-id="5309"></path><path d="M255.966564 742.436779a76.789969 76.789969 0 1 0 76.78997-76.789969A76.789969 76.789969 0 0 0 255.966564 742.436779zM153.579939 537.663528a76.789969 76.789969 0 1 0 76.789969-76.78997 76.789969 76.789969 0 0 0-76.789969 76.78997zM255.966564 307.29362a102.386626 102.386626 0 1 0 102.386626-102.386626A102.386626 102.386626 0 0 0 255.966564 307.29362z" fill="#2B85FB" p-id="5310"></path></svg>