<?xml version="1.0" standalone="no"?><!DOCTYPE svg PUBLIC "-//W3C//DTD SVG 1.1//EN" "http://www.w3.org/Graphics/SVG/1.1/DTD/svg11.dtd"><svg t="1709728548456" class="icon" viewBox="0 0 1024 1024" version="1.1" xmlns="http://www.w3.org/2000/svg" p-id="13566" xmlns:xlink="http://www.w3.org/1999/xlink" width="20" height="20"><path d="M342 391.1h24.7v180.4H342z" fill="#FFFFFF" p-id="13567"></path><path d="M404.6 711.5c-0.4 3.7-0.6 7.5-0.6 11.2v70c0 59.7 48.4 108 108 108 59.7 0 108-48.4 108-108v-70c0-3.8-0.2-7.5-0.6-11.2H404.6z m0 0" fill="#CCE5F6" p-id="13568"></path><path d="M512 923.9c-72.3 0-131.1-58.8-131.1-131.1v-70c0-4.5 0.2-9.1 0.7-13.6 1.2-11.8 11.1-20.7 23-20.7h214.9c11.8 0 21.8 8.9 23 20.7 0.5 4.5 0.7 9.1 0.7 13.6v70c-0.1 72.3-58.9 131.1-131.2 131.1z m-84.9-189.3v58.1c0 46.8 38.1 84.9 84.9 84.9 46.8 0 84.9-38.1 84.9-84.9v-58.1H427.1z m148-477.2c-0.8 0-1.6 0-2.4-0.1-12.7-1.3-21.9-12.7-20.6-25.4 0.1-1.4 0.2-2.8 0.2-4.2v-41.1c0-22.2-18.1-40.3-40.3-40.3-22.2 0-40.3 18.1-40.3 40.3v41.1c0 1.4 0.1 2.8 0.2 4.2 1.3 12.7-7.9 24.1-20.6 25.4-12.7 1.3-24.1-7.9-25.4-20.6-0.3-3-0.5-6-0.5-9v-41.1c0-47.7 38.8-86.5 86.5-86.5s86.5 38.8 86.5 86.5v41.1c0 3-0.2 6-0.5 9-1.1 11.9-11.1 20.7-22.8 20.7z m0 0" fill="#2197EF" p-id="13569"></path><path d="M756.7 616.9c-12.8 0-23.1-10.3-23.1-23.1V481.3c0-122.2-99.4-221.6-221.6-221.6-122.2 0-221.6 99.4-221.6 221.6v112.5c0 12.8-10.3 23.1-23.1 23.1s-23.1-10.3-23.1-23.1V481.3c0-147.7 120.2-267.8 267.8-267.8 147.7 0 267.9 120.2 267.9 267.8v112.5c0 12.8-10.4 23.1-23.2 23.1z m0 0" fill="#2197EF" p-id="13570"></path><path d="M168.3 677h687.5v113.6H168.3z" fill="#CCE5F6" p-id="13571"></path><path d="M855.7 813.7H168.3c-12.8 0-23.1-10.3-23.1-23.1V677c0-12.8 10.3-23.1 23.1-23.1h687.5c12.8 0 23.1 10.4 23.1 23.1v113.6c0 12.8-10.4 23.1-23.2 23.1z m-664.3-46.2h641.3v-67.4H191.4v67.4z m0 0" fill="#2197EF" p-id="13572"></path></svg>