<?xml version="1.0" standalone="no"?><!DOCTYPE svg PUBLIC "-//W3C//DTD SVG 1.1//EN" "http://www.w3.org/Graphics/SVG/1.1/DTD/svg11.dtd"><svg t="1709727491885" class="icon" viewBox="0 0 1024 1024" version="1.1" xmlns="http://www.w3.org/2000/svg" p-id="10517" xmlns:xlink="http://www.w3.org/1999/xlink" width="20" height="20"><path d="M128 85.333333a42.666667 42.666667 0 0 0-42.666667 42.666667v768a42.666667 42.666667 0 0 0 42.666667 42.666667h768a42.666667 42.666667 0 0 0 42.666667-42.666667V128a42.666667 42.666667 0 0 0-42.666667-42.666667H128z m0-85.333333h768a128 128 0 0 1 128 128v768a128 128 0 0 1-128 128H128a128 128 0 0 1-128-128V128a128 128 0 0 1 128-128z" fill="#46287a" p-id="10518"></path><path d="M753.365333 522.368L662.869333 431.786667a42.666667 42.666667 0 0 1 60.330667-60.330667l120.661333 120.704a42.666667 42.666667 0 0 1 0 60.330667L723.2 673.194667a42.666667 42.666667 0 0 1-60.330667-60.330667l90.453334-90.496zM291.328 522.368L381.866667 612.864a42.666667 42.666667 0 1 1-60.330667 60.330667L200.832 552.533333a42.666667 42.666667 0 0 1 0-60.330666l120.704-120.704A42.666667 42.666667 0 1 1 381.866667 431.829333L291.328 522.368z" fill="#46287a" p-id="10519"></path><path d="M426.673489 750.538066m11.042946-41.212836l110.429459-412.128352q11.042946-41.212835 52.255782-30.16989l0 0q41.212835 11.042946 30.169889 52.255782l-110.429459 412.128352q-11.042946 41.212835-52.255782 30.16989l0 0q-41.212835-11.042946-30.169889-52.255782Z" fill="#46287a" p-id="10520"></path></svg>