<?xml version="1.0" standalone="no"?><!DOCTYPE svg PUBLIC "-//W3C//DTD SVG 1.1//EN" "http://www.w3.org/Graphics/SVG/1.1/DTD/svg11.dtd"><svg t="1709388632279" class="icon" viewBox="0 0 1024 1024" version="1.1" xmlns="http://www.w3.org/2000/svg" p-id="4994" width="20" height="20" xmlns:xlink="http://www.w3.org/1999/xlink"><path d="M849.92 722.82112h-61.5424v60.17024H849.92v-60.17024z" fill="#000000" p-id="4995"></path><path d="M849.92 662.48704h-61.5424v60.35456H849.92v-60.35456zM849.92 602.3168h-61.5424v60.17024H849.92V602.3168z" fill="#000000" p-id="4996"></path><path d="M849.92 541.98272h-61.5424v60.35456H849.92v-60.35456zM849.92 481.81248h-61.5424v60.17024H849.92v-60.17024zM849.92 421.6832h-61.5424v60.12928H849.92V421.6832zM849.92 361.32864h-61.5424v60.35456H849.92v-60.35456zM849.92 301.1584h-61.5424v60.14976H849.92v-60.14976zM849.92 240.80384h-61.5424v60.35456H849.92v-60.35456zM849.92 180.65408h-61.5424v60.14976H849.92V180.65408zM788.3776 782.99136h-61.35808v60.14976h61.35808v-60.14976z" fill="#000000" p-id="4997"></path><path d="M788.3776 722.82112h-61.35808v60.17024h61.35808v-60.17024z" fill="#EA348B" p-id="4998"></path><path d="M788.3776 662.48704h-61.35808v60.35456h61.35808v-60.35456zM788.3776 602.3168h-61.35808v60.17024h61.35808V602.3168z" fill="#EA348B" p-id="4999"></path><path d="M788.3776 541.98272h-61.35808v60.35456h61.35808v-60.35456zM788.3776 481.81248h-61.35808v60.17024h61.35808v-60.17024zM788.3776 421.6832h-61.35808v60.12928h61.35808V421.6832zM788.3776 361.32864h-61.35808v60.35456h61.35808v-60.35456zM788.3776 301.1584h-61.35808v60.14976h61.35808v-60.14976zM788.3776 240.80384h-61.35808v60.35456h61.35808v-60.35456zM788.3776 180.65408h-61.35808v60.14976h61.35808V180.65408z" fill="#EA348B" p-id="5000"></path><path d="M788.3776 120.50432h-61.35808V180.6336h61.35808V120.50432zM788.3776 60.14976h-61.35808v60.35456h61.35808V60.14976zM727.04 782.99136h-61.35808v60.14976h61.3376v-60.14976z" fill="#000000" p-id="5001"></path><path d="M727.04 722.82112h-61.35808v60.17024h61.3376v-60.17024z" fill="#EA348B" p-id="5002"></path><path d="M727.04 662.48704h-61.35808v60.35456h61.3376v-60.35456zM727.04 602.3168h-61.35808v60.17024h61.3376V602.3168z" fill="#EA348B" p-id="5003"></path><path d="M727.04 541.98272h-61.35808v60.35456h61.3376v-60.35456zM727.04 481.81248h-61.35808v60.17024h61.3376v-60.17024zM727.04 421.6832h-61.35808v60.12928h61.3376V421.6832zM727.04 361.32864h-61.35808v60.35456h61.3376v-60.35456zM727.04 301.1584h-61.35808v60.14976h61.3376v-60.14976zM727.04 240.80384h-61.35808v60.35456h61.3376v-60.35456zM727.04 180.65408h-61.35808v60.14976h61.3376V180.65408zM727.04 120.50432h-61.35808V180.6336h61.3376V120.50432zM727.04 60.14976h-61.35808v60.35456h61.3376V60.14976z" fill="#EA348B" p-id="5004"></path><path d="M727.04 0h-61.35808v60.14976h61.3376V0zM665.68192 782.99136h-61.56288v60.14976h61.56288v-60.14976z" fill="#000000" p-id="5005"></path><path d="M665.68192 722.82112h-61.56288v60.17024h61.56288v-60.17024z" fill="#EA348B" p-id="5006"></path><path d="M665.68192 662.48704h-61.56288v60.35456h61.56288v-60.35456zM665.68192 602.3168h-61.56288v60.17024h61.56288V602.3168z" fill="#000000" p-id="5007"></path><path d="M665.68192 541.98272h-61.56288v60.35456h61.56288v-60.35456zM665.68192 481.81248h-61.56288v60.17024h61.56288v-60.17024zM665.68192 421.6832h-61.56288v60.12928h61.56288V421.6832zM665.68192 361.32864h-61.56288v60.35456h61.56288v-60.35456zM665.68192 301.1584h-61.56288v60.14976h61.56288v-60.14976zM665.68192 240.80384h-61.56288v60.35456h61.56288v-60.35456z" fill="#000000" p-id="5008"></path><path d="M665.68192 180.65408h-61.56288v60.14976h61.56288V180.65408zM665.68192 120.50432h-61.56288V180.6336h61.56288V120.50432zM665.68192 60.14976h-61.56288v60.35456h61.56288V60.14976z" fill="#EA348B" p-id="5009"></path><path d="M665.68192 0h-61.56288v60.14976h61.56288V0zM604.11904 903.49568h-61.3376v60.14976h61.3376v-60.14976zM604.11904 843.14112h-61.3376v60.35456h61.3376v-60.35456zM604.11904 782.99136h-61.3376v60.14976h61.3376v-60.14976z" fill="#000000" p-id="5010"></path><path d="M604.11904 722.82112h-61.3376v60.17024h61.3376v-60.17024z" fill="#EA348B" p-id="5011"></path><path d="M604.11904 662.48704h-61.3376v60.35456h61.3376v-60.35456zM604.11904 602.3168h-61.3376v60.17024h61.3376V602.3168z" fill="#EA348B" p-id="5012"></path><path d="M604.11904 541.98272h-61.3376v60.35456h61.3376v-60.35456zM604.11904 481.81248h-61.3376v60.17024h61.3376v-60.17024zM604.11904 421.6832h-61.3376v60.12928h61.3376V421.6832zM604.11904 361.32864h-61.3376v60.35456h61.3376v-60.35456zM604.11904 301.1584h-61.3376v60.14976h61.3376v-60.14976zM604.11904 240.80384h-61.3376v60.35456h61.3376v-60.35456zM604.11904 180.65408h-61.3376v60.14976h61.3376V180.65408zM604.11904 120.50432h-61.3376V180.6336h61.3376V120.50432zM604.11904 60.14976h-61.3376v60.35456h61.3376V60.14976z" fill="#EA348B" p-id="5013"></path><path d="M604.11904 0h-61.3376v60.14976h61.3376V0zM542.78144 963.64544h-61.5424V1024h61.5424v-60.35456z" fill="#000000" p-id="5014"></path><path d="M542.78144 903.49568h-61.5424v60.14976h61.5424v-60.14976zM542.78144 843.14112h-61.5424v60.35456h61.5424v-60.35456z" fill="#FFB655" p-id="5015"></path><path d="M542.78144 782.99136h-61.5424v60.14976h61.5424v-60.14976z" fill="#000000" p-id="5016"></path><path d="M542.78144 722.82112h-61.5424v60.17024h61.5424v-60.17024z" fill="#EA348B" p-id="5017"></path><path d="M542.78144 662.48704h-61.5424v60.35456h61.5424v-60.35456zM542.78144 602.3168h-61.5424v60.17024h61.5424V602.3168z" fill="#EA348B" p-id="5018"></path><path d="M542.78144 541.98272h-61.5424v60.35456h61.5424v-60.35456zM542.78144 481.81248h-61.5424v60.17024h61.5424v-60.17024zM542.78144 421.6832h-61.5424v60.12928h61.5424V421.6832zM542.78144 361.32864h-61.5424v60.35456h61.5424v-60.35456zM542.78144 301.1584h-61.5424v60.14976h61.5424v-60.14976zM542.78144 240.80384h-61.5424v60.35456h61.5424v-60.35456zM542.78144 180.65408h-61.5424v60.14976h61.5424V180.65408zM542.78144 120.50432h-61.5424V180.6336h61.5424V120.50432zM542.78144 60.14976h-61.5424v60.35456h61.5424V60.14976z" fill="#EA348B" p-id="5019"></path><path d="M542.78144 0h-61.5424v60.14976h61.5424V0zM481.21856 903.49568h-61.3376v60.14976h61.3376v-60.14976zM481.21856 843.14112h-61.3376v60.35456h61.3376v-60.35456zM481.21856 782.99136h-61.3376v60.14976h61.3376v-60.14976z" fill="#000000" p-id="5020"></path><path d="M481.21856 722.82112h-61.3376v60.17024h61.3376v-60.17024z" fill="#EA348B" p-id="5021"></path><path d="M481.21856 662.48704h-61.3376v60.35456h61.3376v-60.35456zM481.21856 602.3168h-61.3376v60.17024h61.3376V602.3168z" fill="#EA348B" p-id="5022"></path><path d="M481.21856 541.98272h-61.3376v60.35456h61.3376v-60.35456zM481.21856 481.81248h-61.3376v60.17024h61.3376v-60.17024zM481.21856 421.6832h-61.3376v60.12928h61.3376V421.6832zM481.21856 361.32864h-61.3376v60.35456h61.3376v-60.35456zM481.21856 301.1584h-61.3376v60.14976h61.3376v-60.14976zM481.21856 240.80384h-61.3376v60.35456h61.3376v-60.35456zM481.21856 180.65408h-61.3376v60.14976h61.3376V180.65408zM481.21856 120.50432h-61.3376V180.6336h61.3376V120.50432zM481.21856 60.14976h-61.3376v60.35456h61.3376V60.14976z" fill="#EA348B" p-id="5023"></path><path d="M481.21856 0h-61.3376v60.14976h61.3376V0zM419.88096 782.99136h-61.56288v60.14976h61.56288v-60.14976z" fill="#000000" p-id="5024"></path><path d="M419.88096 722.82112h-61.56288v60.17024h61.56288v-60.17024z" fill="#EA348B" p-id="5025"></path><path d="M419.88096 662.48704h-61.56288v60.35456h61.56288v-60.35456zM419.88096 602.3168h-61.56288v60.17024h61.56288V602.3168z" fill="#000000" p-id="5026"></path><path d="M419.88096 541.98272h-61.56288v60.35456h61.56288v-60.35456zM419.88096 481.81248h-61.56288v60.17024h61.56288v-60.17024zM419.88096 421.6832h-61.56288v60.12928h61.56288V421.6832zM419.88096 361.32864h-61.56288v60.35456h61.56288v-60.35456zM419.88096 301.1584h-61.56288v60.14976h61.56288v-60.14976zM419.88096 240.80384h-61.56288v60.35456h61.56288v-60.35456z" fill="#000000" p-id="5027"></path><path d="M419.88096 180.65408h-61.56288v60.14976h61.56288V180.65408zM419.88096 120.50432h-61.56288V180.6336h61.56288V120.50432zM419.88096 60.14976h-61.56288v60.35456h61.56288V60.14976z" fill="#EA348B" p-id="5028"></path><path d="M419.88096 0h-61.56288v60.14976h61.56288V0zM358.31808 782.99136h-61.3376v60.14976h61.3376v-60.14976z" fill="#000000" p-id="5029"></path><path d="M358.31808 722.82112h-61.3376v60.17024h61.3376v-60.17024z" fill="#EA348B" p-id="5030"></path><path d="M358.31808 662.48704h-61.3376v60.35456h61.3376v-60.35456zM358.31808 602.3168h-61.3376v60.17024h61.3376V602.3168z" fill="#EA348B" p-id="5031"></path><path d="M358.31808 541.98272h-61.3376v60.35456h61.3376v-60.35456zM358.31808 481.81248h-61.3376v60.17024h61.3376v-60.17024zM358.31808 421.6832h-61.3376v60.12928h61.3376V421.6832zM358.31808 361.32864h-61.3376v60.35456h61.3376v-60.35456zM358.31808 301.1584h-61.3376v60.14976h61.3376v-60.14976zM358.31808 240.80384h-61.3376v60.35456h61.3376v-60.35456zM358.31808 180.65408h-61.3376v60.14976h61.3376V180.65408zM358.31808 120.50432h-61.3376V180.6336h61.3376V120.50432zM358.31808 60.14976h-61.3376v60.35456h61.3376V60.14976z" fill="#EA348B" p-id="5032"></path><path d="M358.31808 0h-61.3376v60.14976h61.3376V0zM296.96 782.99136h-61.3376v60.14976h61.35808v-60.14976z" fill="#000000" p-id="5033"></path><path d="M296.96 722.82112h-61.3376v60.17024h61.35808v-60.17024z" fill="#EA348B" p-id="5034"></path><path d="M296.96 662.48704h-61.3376v60.35456h61.35808v-60.35456zM296.96 602.3168h-61.3376v60.17024h61.35808V602.3168z" fill="#EA348B" p-id="5035"></path><path d="M296.96 541.98272h-61.3376v60.35456h61.35808v-60.35456zM296.96 481.81248h-61.3376v60.17024h61.35808v-60.17024zM296.96 421.6832h-61.3376v60.12928h61.35808V421.6832zM296.96 361.32864h-61.3376v60.35456h61.35808v-60.35456zM296.96 301.1584h-61.3376v60.14976h61.35808v-60.14976zM296.96 240.80384h-61.3376v60.35456h61.35808v-60.35456zM296.96 180.65408h-61.3376v60.14976h61.35808V180.65408z" fill="#EA348B" p-id="5036"></path><path d="M296.96 120.50432h-61.3376V180.6336h61.35808V120.50432zM296.96 60.14976h-61.3376v60.35456h61.35808V60.14976zM235.6224 722.82112H174.08v60.17024h61.5424v-60.17024z" fill="#000000" p-id="5037"></path><path d="M235.6224 662.48704H174.08v60.35456h61.5424v-60.35456zM235.6224 602.3168H174.08v60.17024h61.5424V602.3168z" fill="#000000" p-id="5038"></path><path d="M235.6224 541.98272H174.08v60.35456h61.5424v-60.35456zM235.6224 481.81248H174.08v60.17024h61.5424v-60.17024zM235.6224 421.6832H174.08v60.12928h61.5424V421.6832zM235.6224 361.32864H174.08v60.35456h61.5424v-60.35456zM235.6224 301.1584H174.08v60.14976h61.5424v-60.14976zM235.6224 240.80384H174.08v60.35456h61.5424v-60.35456zM235.6224 180.65408H174.08v60.14976h61.5424V180.65408z" fill="#000000" p-id="5039"></path></svg>